<?xml version="1.0" encoding="UTF-8" standalone="no"?>
<!DOCTYPE svg PUBLIC "-//W3C//DTD SVG 1.1//EN"
 "http://www.w3.org/Graphics/SVG/1.1/DTD/svg11.dtd">
<!-- Generated by graphviz version 2.43.0 (0)
 -->
<!-- Title: robowflex::Planner Pages: 1 -->
<!--zoomable 208 -->
<svg id="main" version="1.1" xmlns="http://www.w3.org/2000/svg" xmlns:xlink="http://www.w3.org/1999/xlink" xml:space="preserve" onload="init(evt)">
<style type="text/css"><![CDATA[
.edge:hover path { stroke: red; }
.edge:hover polygon { stroke: red; fill: red; }
]]></style>
<script type="text/javascript"><![CDATA[
var edges = document.getElementsByTagName('g');
if (edges && edges.length) {
  for (var i=0;i<edges.length;i++) {
    if (edges[i].id.substr(0,4)=='edge') {
      edges[i].setAttribute('class','edge');
    }
  }
}
]]></script>
        <defs>
                <circle id="rim" cx="0" cy="0" r="7"/>
                <circle id="rim2" cx="0" cy="0" r="3.5"/>
                <g id="zoomPlus">
                        <use xlink:href="#rim" fill="#404040">
                                <set attributeName="fill" to="#808080" begin="zoomplus.mouseover" end="zoomplus.mouseout"/>
                        </use>
                        <path d="M-4,0h8M0,-4v8" fill="none" stroke="white" stroke-width="1.5" pointer-events="none"/>
                </g>
                <g id="zoomMin">
                        <use xlink:href="#rim" fill="#404040">
                                <set attributeName="fill" to="#808080" begin="zoomminus.mouseover" end="zoomminus.mouseout"/>
                        </use>
                        <path d="M-4,0h8" fill="none" stroke="white" stroke-width="1.5" pointer-events="none"/>
                </g>
                <g id="dirArrow">
                        <path fill="none" stroke="white" stroke-width="1.5" d="M0,-3.0v7 M-2.5,-0.5L0,-3.0L2.5,-0.5"/>
                </g>
               <g id="resetDef">
                       <use xlink:href="#rim2" fill="#404040">
                               <set attributeName="fill" to="#808080" begin="reset.mouseover" end="reset.mouseout"/>
                       </use>
               </g>
        </defs>

<script type="text/javascript">
var viewWidth = 767;
var viewHeight = 208;
var sectionId = 'dynsection-0';
</script>
<script xlink:href="svgpan.js"/>
<svg id="graph" class="graph">
<g id="viewport">
<title>robowflex::Planner</title>
<!-- Node1 -->
<g id="node1" class="node">
<title>Node1</title>
<g id="a_node1"><a xlink:title="An abstract interface to a motion planning algorithm.">
<polygon fill="#bfbfbf" stroke="black" points="0,-76.5 0,-95.5 107,-95.5 107,-76.5 0,-76.5"/>
<text text-anchor="middle" x="53.5" y="-83.5" font-family="Roboto" font-size="10.00">robowflex::Planner</text>
</a>
</g>
</g>
<!-- Node2 -->
<g id="node2" class="node">
<title>Node2</title>
<g id="a_node2"><a xlink:href="classrobowflex_1_1darts_1_1DARTPlanner.html" target="_top" xlink:title="Wrapper for easy access to DART planning tools via standard Robowflex interface.">
<polygon fill="none" stroke="black" points="149,-164.5 149,-183.5 313,-183.5 313,-164.5 149,-164.5"/>
<text text-anchor="middle" x="231" y="-171.5" font-family="Roboto" font-size="10.00">robowflex::darts::DARTPlanner</text>
</a>
</g>
</g>
<!-- Node1&#45;&gt;Node2 -->
<g id="edge1" class="edge">
<title>Node1&#45;&gt;Node2</title>
<path fill="none" stroke="midnightblue" d="M71.19,-102.81C87.91,-118.67 115.11,-141.92 143,-155 151.26,-158.87 160.33,-161.97 169.4,-164.44"/>
<polygon fill="midnightblue" stroke="midnightblue" points="73.47,-100.15 63.86,-95.69 68.59,-105.17 73.47,-100.15"/>
</g>
<!-- Node3 -->
<g id="node3" class="node">
<title>Node3</title>
<g id="a_node3"><a xlink:href="classrobowflex_1_1OMPL_1_1OMPLInterfacePlanner.html" target="_top" xlink:title="A planner that directly uses MoveIt!&#39;s OMPL planning interface.">
<polygon fill="none" stroke="black" points="143,-115 143,-145 319,-145 319,-115 143,-115"/>
<text text-anchor="start" x="151" y="-133" font-family="Roboto" font-size="10.00">robowflex::OMPL::OMPLInterface</text>
<text text-anchor="middle" x="231" y="-122" font-family="Roboto" font-size="10.00">Planner</text>
</a>
</g>
</g>
<!-- Node1&#45;&gt;Node3 -->
<g id="edge2" class="edge">
<title>Node1&#45;&gt;Node3</title>
<path fill="none" stroke="midnightblue" d="M102.47,-98.03C123.29,-103.25 147.89,-109.41 169.91,-114.93"/>
<polygon fill="midnightblue" stroke="midnightblue" points="103.13,-94.58 92.58,-95.55 101.43,-101.37 103.13,-94.58"/>
</g>
<!-- Node4 -->
<g id="node4" class="node">
<title>Node4</title>
<g id="a_node4"><a xlink:href="classrobowflex_1_1PipelinePlanner.html" target="_top" xlink:title="A motion planner that uses the MoveIt! planning pipeline to load a planner plugin.">
<polygon fill="none" stroke="black" points="158,-76.5 158,-95.5 304,-95.5 304,-76.5 158,-76.5"/>
<text text-anchor="middle" x="231" y="-83.5" font-family="Roboto" font-size="10.00">robowflex::PipelinePlanner</text>
</a>
</g>
</g>
<!-- Node1&#45;&gt;Node4 -->
<g id="edge3" class="edge">
<title>Node1&#45;&gt;Node4</title>
<path fill="none" stroke="midnightblue" d="M117.47,-86C130.58,-86 144.5,-86 157.91,-86"/>
<polygon fill="midnightblue" stroke="midnightblue" points="117.16,-82.5 107.16,-86 117.16,-89.5 117.16,-82.5"/>
</g>
<!-- Node11 -->
<g id="node11" class="node">
<title>Node11</title>
<g id="a_node11"><a xlink:href="classrobowflex_1_1PoolPlanner.html" target="_top" xlink:title="A thread pool of planners P to service requests in a multi&#45;threaded environment simultaneously.">
<polygon fill="none" stroke="black" points="167,-38.5 167,-57.5 295,-57.5 295,-38.5 167,-38.5"/>
<text text-anchor="middle" x="231" y="-45.5" font-family="Roboto" font-size="10.00">robowflex::PoolPlanner</text>
</a>
</g>
</g>
<!-- Node1&#45;&gt;Node11 -->
<g id="edge10" class="edge">
<title>Node1&#45;&gt;Node11</title>
<path fill="none" stroke="midnightblue" d="M108.78,-74.25C133.59,-68.87 162.61,-62.59 186.03,-57.52"/>
<polygon fill="midnightblue" stroke="midnightblue" points="107.82,-70.87 98.79,-76.41 109.3,-77.72 107.82,-70.87"/>
</g>
<!-- Node12 -->
<g id="node12" class="node">
<title>Node12</title>
<g id="a_node12"><a xlink:href="classrobowflex_1_1TrajOptPlanner.html" target="_top" xlink:title="Robowflex Tesseract TrajOpt Planner.">
<polygon fill="none" stroke="black" points="160,-0.5 160,-19.5 302,-19.5 302,-0.5 160,-0.5"/>
<text text-anchor="middle" x="231" y="-7.5" font-family="Roboto" font-size="10.00">robowflex::TrajOptPlanner</text>
</a>
</g>
</g>
<!-- Node1&#45;&gt;Node12 -->
<g id="edge11" class="edge">
<title>Node1&#45;&gt;Node12</title>
<path fill="none" stroke="midnightblue" d="M74.48,-70.15C91.69,-57.25 117.7,-39.5 143,-29 152.28,-25.15 162.46,-22.02 172.48,-19.51"/>
<polygon fill="midnightblue" stroke="midnightblue" points="72.13,-67.53 66.32,-76.39 76.39,-73.09 72.13,-67.53"/>
</g>
<!-- Node5 -->
<g id="node5" class="node">
<title>Node5</title>
<g id="a_node5"><a xlink:href="classrobowflex_1_1OMPL_1_1OMPLPipelinePlanner.html" target="_top" xlink:title="A robowflex::PipelinePlanner that uses the MoveIt! default OMPL planning pipeline.">
<polygon fill="none" stroke="black" points="355,-120 355,-150 526,-150 526,-120 355,-120"/>
<text text-anchor="start" x="363" y="-138" font-family="Roboto" font-size="10.00">robowflex::OMPL::OMPLPipeline</text>
<text text-anchor="middle" x="440.5" y="-127" font-family="Roboto" font-size="10.00">Planner</text>
</a>
</g>
</g>
<!-- Node4&#45;&gt;Node5 -->
<g id="edge4" class="edge">
<title>Node4&#45;&gt;Node5</title>
<path fill="none" stroke="midnightblue" d="M283.99,-97.86C295.53,-100.52 307.68,-103.34 319,-106 338.06,-110.48 358.8,-115.44 377.61,-119.98"/>
<polygon fill="midnightblue" stroke="midnightblue" points="284.59,-94.41 274.06,-95.58 283.02,-101.23 284.59,-94.41"/>
</g>
<!-- Node9 -->
<g id="node9" class="node">
<title>Node9</title>
<g id="a_node9"><a xlink:href="classrobowflex_1_1opt_1_1CHOMPPipelinePlanner.html" target="_top" xlink:title="A robowflex::PipelinePlanner that uses the MoveIt! CHOMP planning pipeline.">
<polygon fill="none" stroke="black" points="356.5,-71 356.5,-101 524.5,-101 524.5,-71 356.5,-71"/>
<text text-anchor="start" x="364.5" y="-89" font-family="Roboto" font-size="10.00">robowflex::opt::CHOMPPipeline</text>
<text text-anchor="middle" x="440.5" y="-78" font-family="Roboto" font-size="10.00">Planner</text>
</a>
</g>
</g>
<!-- Node4&#45;&gt;Node9 -->
<g id="edge8" class="edge">
<title>Node4&#45;&gt;Node9</title>
<path fill="none" stroke="midnightblue" d="M314.68,-86C328.43,-86 342.7,-86 356.46,-86"/>
<polygon fill="midnightblue" stroke="midnightblue" points="314.28,-82.5 304.28,-86 314.28,-89.5 314.28,-82.5"/>
</g>
<!-- Node10 -->
<g id="node10" class="node">
<title>Node10</title>
<g id="a_node10"><a xlink:href="classrobowflex_1_1opt_1_1TrajOptPipelinePlanner.html" target="_top" xlink:title="A robowflex::PipelinePlanner that uses the MoveIt! TrajOpt planning pipeline.">
<polygon fill="none" stroke="black" points="357.5,-22 357.5,-52 523.5,-52 523.5,-22 357.5,-22"/>
<text text-anchor="start" x="365.5" y="-40" font-family="Roboto" font-size="10.00">robowflex::opt::TrajOptPipeline</text>
<text text-anchor="middle" x="440.5" y="-29" font-family="Roboto" font-size="10.00">Planner</text>
</a>
</g>
</g>
<!-- Node4&#45;&gt;Node10 -->
<g id="edge9" class="edge">
<title>Node4&#45;&gt;Node10</title>
<path fill="none" stroke="midnightblue" d="M286.84,-74.28C297.52,-71.92 308.62,-69.43 319,-67 339.05,-62.32 360.91,-56.95 380.44,-52.07"/>
<polygon fill="midnightblue" stroke="midnightblue" points="285.78,-70.93 276.76,-76.48 287.28,-77.76 285.78,-70.93"/>
</g>
<!-- Node6 -->
<g id="node6" class="node">
<title>Node6</title>
<g id="a_node6"><a xlink:href="classrobowflex_1_1OMPL_1_1FetchOMPLPipelinePlanner.html" target="_top" xlink:title="Convenience class for the default motion planning pipeline for Fetch.">
<polygon fill="none" stroke="black" points="562,-169 562,-199 759,-199 759,-169 562,-169"/>
<text text-anchor="start" x="570" y="-187" font-family="Roboto" font-size="10.00">robowflex::OMPL::FetchOMPLPipeline</text>
<text text-anchor="middle" x="660.5" y="-176" font-family="Roboto" font-size="10.00">Planner</text>
</a>
</g>
</g>
<!-- Node5&#45;&gt;Node6 -->
<g id="edge5" class="edge">
<title>Node5&#45;&gt;Node6</title>
<path fill="none" stroke="midnightblue" d="M518.28,-152.26C542.57,-157.72 569.21,-163.71 592.74,-168.99"/>
<polygon fill="midnightblue" stroke="midnightblue" points="518.91,-148.81 508.39,-150.03 517.38,-155.64 518.91,-148.81"/>
</g>
<!-- Node7 -->
<g id="node7" class="node">
<title>Node7</title>
<g id="a_node7"><a xlink:href="classrobowflex_1_1OMPL_1_1R2OMPLPipelinePlanner.html" target="_top" xlink:title="Convenience class for the default motion planning pipeline for R2 (R2C6 full).">
<polygon fill="none" stroke="black" points="568.5,-120 568.5,-150 752.5,-150 752.5,-120 568.5,-120"/>
<text text-anchor="start" x="576.5" y="-138" font-family="Roboto" font-size="10.00">robowflex::OMPL::R2OMPLPipeline</text>
<text text-anchor="middle" x="660.5" y="-127" font-family="Roboto" font-size="10.00">Planner</text>
</a>
</g>
</g>
<!-- Node5&#45;&gt;Node7 -->
<g id="edge6" class="edge">
<title>Node5&#45;&gt;Node7</title>
<path fill="none" stroke="midnightblue" d="M536.27,-135C546.95,-135 557.82,-135 568.45,-135"/>
<polygon fill="midnightblue" stroke="midnightblue" points="536.1,-131.5 526.1,-135 536.1,-138.5 536.1,-131.5"/>
</g>
<!-- Node8 -->
<g id="node8" class="node">
<title>Node8</title>
<g id="a_node8"><a xlink:href="classrobowflex_1_1OMPL_1_1UR5OMPLPipelinePlanner.html" target="_top" xlink:title="Convenience class for the default motion planning pipeline for UR5.">
<polygon fill="none" stroke="black" points="565,-71 565,-101 756,-101 756,-71 565,-71"/>
<text text-anchor="start" x="573" y="-89" font-family="Roboto" font-size="10.00">robowflex::OMPL::UR5OMPLPipeline</text>
<text text-anchor="middle" x="660.5" y="-78" font-family="Roboto" font-size="10.00">Planner</text>
</a>
</g>
</g>
<!-- Node5&#45;&gt;Node8 -->
<g id="edge7" class="edge">
<title>Node5&#45;&gt;Node8</title>
<path fill="none" stroke="midnightblue" d="M518.28,-117.74C542.57,-112.28 569.21,-106.29 592.74,-101.01"/>
<polygon fill="midnightblue" stroke="midnightblue" points="517.38,-114.36 508.39,-119.97 518.91,-121.19 517.38,-114.36"/>
</g>
</g>
</svg>
        <g id="navigator" transform="translate(0 0)" fill="#404254">
                <rect fill="#f2f5e9" fill-opacity="0.5" stroke="#606060" stroke-width=".5" x="0" y="0" width="60" height="60"/>
                <use id="zoomplus" xlink:href="#zoomPlus" x="17" y="9" onmousedown="handleZoom(evt,'in')"/>
                <use id="zoomminus" xlink:href="#zoomMin" x="42" y="9" onmousedown="handleZoom(evt,'out')"/>
                <use id="reset" xlink:href="#resetDef" x="30" y="36" onmousedown="handleReset()"/>
                <g id="arrowUp" xlink:href="#dirArrow" transform="translate(30 24)" onmousedown="handlePan(0,-1)">
                  <use xlink:href="#rim" fill="#404040">
                        <set attributeName="fill" to="#808080" begin="arrowUp.mouseover" end="arrowUp.mouseout"/>
                  </use>
                  <path fill="none" stroke="white" stroke-width="1.5" d="M0,-3.0v7 M-2.5,-0.5L0,-3.0L2.5,-0.5"/>
                </g>
                <g id="arrowRight" xlink:href="#dirArrow" transform="rotate(90) translate(36 -43)" onmousedown="handlePan(1,0)">
                  <use xlink:href="#rim" fill="#404040">
                        <set attributeName="fill" to="#808080" begin="arrowRight.mouseover" end="arrowRight.mouseout"/>
                  </use>
                  <path fill="none" stroke="white" stroke-width="1.5" d="M0,-3.0v7 M-2.5,-0.5L0,-3.0L2.5,-0.5"/>
                </g>
                <g id="arrowDown" xlink:href="#dirArrow" transform="rotate(180) translate(-30 -48)" onmousedown="handlePan(0,1)">
                  <use xlink:href="#rim" fill="#404040">
                        <set attributeName="fill" to="#808080" begin="arrowDown.mouseover" end="arrowDown.mouseout"/>
                  </use>
                  <path fill="none" stroke="white" stroke-width="1.5" d="M0,-3.0v7 M-2.5,-0.5L0,-3.0L2.5,-0.5"/>
                </g>
                <g id="arrowLeft" xlink:href="#dirArrow" transform="rotate(270) translate(-36 17)" onmousedown="handlePan(-1,0)">
                  <use xlink:href="#rim" fill="#404040">
                        <set attributeName="fill" to="#808080" begin="arrowLeft.mouseover" end="arrowLeft.mouseout"/>
                  </use>
                  <path fill="none" stroke="white" stroke-width="1.5" d="M0,-3.0v7 M-2.5,-0.5L0,-3.0L2.5,-0.5"/>
                </g>
        </g>
        <svg viewBox="0 0 15 15" width="100%" height="30px" preserveAspectRatio="xMaxYMin meet">
         <g id="arrow_out" transform="scale(0.3 0.3)">
          <a xlink:href="classrobowflex_1_1Planner__inherit__graph_org.svg" target="_base">
           <rect id="button" ry="5" rx="5" y="6" x="6" height="38" width="38"
                fill="#f2f5e9" fill-opacity="0.5" stroke="#606060" stroke-width="1.0"/>
           <path id="arrow"
             d="M 11.500037,31.436501 C 11.940474,20.09759 22.043105,11.32322 32.158766,21.979434 L 37.068811,17.246167 C 37.068811,17.246167 37.088388,32 37.088388,32 L 22.160133,31.978069 C 22.160133,31.978069 26.997745,27.140456 26.997745,27.140456 C 18.528582,18.264221 13.291696,25.230495 11.500037,31.436501 z"
             style="fill:#404040;"/>
          </a>
         </g>
        </svg>
</svg>
